<?xml version="1.0" encoding="utf-8"?>
<!-- Generator: Adobe Illustrator 24.1.3, SVG Export Plug-In . SVG Version: 6.00 Build 0)  -->
<svg version="1.1" id="Camada_1" xmlns="http://www.w3.org/2000/svg" xmlns:xlink="http://www.w3.org/1999/xlink" x="0px" y="0px"
	 viewBox="0 0 384 384" style="enable-background:new 0 0 384 384;" xml:space="preserve">
<style type="text/css">
	.st0{fill:#9AB7A7;}
</style>
<g>
	<path class="st0" d="M312.9,96.8L96.8,312.9c-5.4,5.4-15.6,4-22.7-3.1s-8.5-17.3-3.1-22.7L287.2,71.1c5.4-5.4,15.6-4,22.7,3.1
		S318.4,91.4,312.9,96.8z"/>
	<path class="st0" d="M71.1,96.8l216.1,216.1c5.4,5.4,15.6,4,22.7-3.1s8.5-17.3,3.1-22.7L96.8,71.1c-5.4-5.4-15.6-4-22.7,3.1
		S65.6,91.4,71.1,96.8z"/>
</g>
<text transform="matrix(1 0 0 1 960 540)" style="font-family:'MyriadPro-Regular'; font-size:12px;">#9AB7A7</text>
<text transform="matrix(1 0 0 1 960 540)" style="font-family:'MyriadPro-Regular'; font-size:12px;">#9AB7A7</text>
</svg>
