<?xml version="1.0" encoding="utf-8"?>
<!-- Generator: Adobe Illustrator 24.1.3, SVG Export Plug-In . SVG Version: 6.00 Build 0)  -->
<svg version="1.1" id="Camada_1" xmlns="http://www.w3.org/2000/svg" xmlns:xlink="http://www.w3.org/1999/xlink" x="0px" y="0px"
	 viewBox="0 0 384 384" style="enable-background:new 0 0 384 384;" xml:space="preserve">
<style type="text/css">
	.st0{fill:#9AB7A7;}
</style>
<path class="st0" d="M588.3,86.3L478.6,195.9c-2.8,2.8-7.9,2.1-11.5-1.6c-3.6-3.6-4.3-8.8-1.6-11.5L575.2,73.2
	c2.8-2.8,7.9-2.1,11.5,1.6C590.4,78.4,591.1,83.5,588.3,86.3z"/>
<path class="st0" d="M465.6,86.3l109.7,109.7c2.8,2.8,7.9,2.1,11.5-1.6c3.6-3.6,4.3-8.8,1.6-11.5L478.6,73.2
	c-2.8-2.8-7.9-2.1-11.5,1.6C463.5,78.4,462.8,83.5,465.6,86.3z"/>
<g>
	<path class="st0" d="M316.7,272H67.3c-6.3,0-11.3-8.1-11.3-18s5.1-18,11.3-18h249.5c6.3,0,11.3,8.1,11.3,18S323,272,316.7,272z"/>
	<path class="st0" d="M316.7,210H67.3c-6.3,0-11.3-8.1-11.3-18s5.1-18,11.3-18h249.5c6.3,0,11.3,8.1,11.3,18S323,210,316.7,210z"/>
	<path class="st0" d="M316.7,148H67.3c-6.3,0-11.3-8.1-11.3-18s5.1-18,11.3-18h249.5c6.3,0,11.3,8.1,11.3,18S323,148,316.7,148z"/>
</g>
<text transform="matrix(1 0 0 1 960 540)" style="font-family:'MyriadPro-Regular'; font-size:12px;">#9AB7A7</text>
<text transform="matrix(1 0 0 1 960 540)" style="font-family:'MyriadPro-Regular'; font-size:12px;">#9AB7A7</text>
</svg>
